<?xml version="1.0" encoding="UTF-8" standalone="no"?>
<svg xmlns="http://www.w3.org/2000/svg" version="1.1" width="100%" viewBox="0 0 132 64">
    <path fill="white" d="m 123.01483,46.615353 c 0,4.948978 4.03078,8.97296 8.98517,8.97296 V 64 c -9.60041,0 -17.41113,-7.797558 -17.41113,-17.382105 l -0.01,-8.585951 c 0,-4.948968 -4.03078,-8.972949 -8.98557,-8.972949 -4.95489,0 -8.985676,4.023981 -8.985676,8.970418 v 8.588482 C 96.607624,56.202442 88.797308,64 79.196499,64 73.923541,64 69.190701,61.647117 65.994999,57.938232 62.799297,61.647117 58.066857,64 52.793499,64 47.52214,64 42.790601,61.648805 39.595299,57.942039 36.399597,61.648805 31.668457,64 26.396699,64 21.125441,64 16.393902,61.648805 13.1986,57.941617 10.002798,61.648805 5.2712581,64 0,64 v -8.411687 c 4.9543885,0 8.9855741,-4.023982 8.9855741,-8.970418 V 28.276529 h 8.4255509 v 18.341366 c 0,4.946436 4.030786,8.970418 8.985574,8.970418 4.954889,0 8.985674,-4.023982 8.985674,-8.970418 l 0.01,-8.591446 V 0 h 8.425551 v 23.146106 c 2.625076,-1.585224 5.700452,-2.498799 8.985574,-2.498799 9.600809,0 17.411125,7.797558 17.411125,17.382106 v 8.588482 c 0,4.946436 4.030785,8.970418 8.985574,8.970418 4.954389,0 8.985274,-4.023982 8.985274,-8.970418 v -8.588482 c 0,-3.708032 -2.23149,-6.984655 -5.684849,-8.346987 l 3.09658,-7.822942 c 2.644181,1.043007 4.967092,2.700555 6.806696,4.839858 3.195302,-3.703381 7.924742,-6.052035 13.193102,-6.052035 9.60071,0 17.41112,7.797558 17.41112,17.382106 z m -61.230856,0.003 h 0.01 v -8.588482 c 0,-4.946437 -4.031186,-8.970418 -8.985574,-8.970418 -4.954789,0 -8.985574,4.023981 -8.985574,8.970418 l -0.01,8.588482 c 5e-4,4.946436 4.031285,8.970418 8.985674,8.970418 4.954388,0 8.985574,-4.023982 8.985574,-8.970418 z M 13.203501,20.609799 c -2.91314,0 -5.274259,-2.357122 -5.274259,-5.26535 0,-2.907806 2.361119,-5.264917 5.274259,-5.264917 2.91274,0 5.273858,2.357111 5.273858,5.264917 0,2.908228 -2.361118,5.26535 -5.273858,5.26535 z"/>
</svg>
