<svg width="32" height="32" viewBox="0 0 32 32" xmlns="http://www.w3.org/2000/svg">
<path d="M9.3282 3.01825C7.57998 3.24223 5.97286 4.09576 4.80801 5.41907C3.64316 6.7424 3.0004 8.44481 3 10.2078C3 15.0483 4.92276 19.6902 8.3453 23.1127C11.7679 26.5353 16.4098 28.4581 21.25 28.4581C23.0132 28.4577 24.7156 27.8149 26.039 26.6501C27.3623 25.4851 28.2158 23.878 28.4399 22.1294C28.5023 21.6432 28.4031 21.1495 28.1576 20.7247C27.9119 20.2998 27.5334 19.9676 27.0803 19.779L21.2433 17.272C20.9046 17.1238 20.5256 17.0626 20.1491 17.0972L19.9623 17.1224C19.6537 17.1773 19.3593 17.2967 19.0987 17.4733L16.098 19.477L15.9148 19.3856C14.2915 18.5278 12.9586 17.1982 12.0941 15.5717L12.003 15.392L14.007 12.3448C14.2142 12.0212 14.3336 11.6663 14.3631 11.2985C14.3926 10.9306 14.331 10.5612 14.1841 10.2227L11.6739 4.36566C11.4905 3.92473 11.1583 3.54621 10.7334 3.30051C10.3086 3.05491 9.81488 2.95571 9.3282 3.01825ZM9.451 5.527L11.837 11.093L9.83053 14.1463C9.61643 14.4772 9.49367 14.8486 9.46914 15.2327C9.44443 15.6161 9.51878 16.0002 9.68484 16.3474C10.8396 18.732 12.7634 20.6509 15.1456 21.797C15.5057 21.9675 15.8964 22.0399 16.2862 22.0102L16.4794 21.9871C16.799 21.9348 17.1047 21.8137 17.3747 21.6314L20.381 19.622L25.93 22.005L25.9602 21.8112C25.8134 22.9574 25.2542 24.0103 24.3872 24.7735C23.5201 25.5367 22.4047 25.9578 21.2497 25.9581C17.0729 25.9581 13.0668 24.2987 10.1131 21.345C7.15937 18.3913 5.5 14.3852 5.5 10.2081C5.50026 9.05329 5.92138 7.93792 6.68456 7.07091C7.39322 6.26584 8.35173 5.72616 9.40234 5.53565L9.451 5.527Z"/>
</svg>
