<svg width="40" height="40" viewBox="0 0 40 40" xmlns="http://www.w3.org/2000/svg">
<path d="M11.1307 3.7948C11.5678 3.55119 12.0619 3.42859 12.5622 3.43965C13.0612 3.45069 13.5483 3.59434 13.9735 3.85583L13.9766 3.85774L36.4478 17.5997C36.8609 17.8467 37.2032 18.1962 37.4417 18.6143C37.6826 19.0365 37.8092 19.5141 37.8092 20.0001C37.8092 20.4861 37.6826 20.9637 37.4417 21.3859C37.2032 21.804 36.8609 22.1535 36.4478 22.4005L13.9766 36.1424L13.9735 36.1443C13.5484 36.4058 13.0612 36.5495 12.5622 36.5605C12.0619 36.5716 11.5678 36.449 11.1307 36.2054C10.6936 35.9618 10.3295 35.6059 10.0758 35.1747C9.82209 34.7434 9.68805 34.2522 9.6875 33.7518V6.24837C9.68805 5.74799 9.82209 5.25682 10.0758 4.82552C10.3295 4.39422 10.6936 4.03841 11.1307 3.7948Z"/>
</svg>
