<svg width="32" height="32" viewBox="0 0 32 32" xmlns="http://www.w3.org/2000/svg">
<path d="M14.5 2.75C8.01065 2.75 2.75 8.01065 2.75 14.5C2.75 20.9893 8.01065 26.25 14.5 26.25C17.2945 26.25 19.8611 25.2745 21.8779 23.6454L27.1164 28.8839C27.6046 29.372 28.396 29.372 28.8842 28.8839C29.3723 28.3957 29.3723 27.6043 28.8842 27.1161L23.6457 21.8776C25.2746 19.8608 26.25 17.2943 26.25 14.5C26.25 8.01065 20.9893 2.75 14.5 2.75ZM5.25 14.5C5.25 9.39137 9.39137 5.25 14.5 5.25C19.6086 5.25 23.75 9.39137 23.75 14.5C23.75 19.6086 19.6086 23.75 14.5 23.75C9.39137 23.75 5.25 19.6086 5.25 14.5Z"/>
</svg>
