<svg width="24" height="24" viewBox="-4 -4 24 24" xmlns="http://www.w3.org/2000/svg">
<path d="M8 2.625C5.03147 2.625 2.625 5.03147 2.625 8C2.625 10.9685 5.03147 13.375 8 13.375C10.9685 13.375 13.375 10.9685 13.375 8C13.375 5.03147 10.9685 2.625 8 2.625ZM1.375 8C1.375 4.34111 4.34111 1.375 8 1.375C11.6589 1.375 14.625 4.34111 14.625 8C14.625 11.6589 11.6589 14.625 8 14.625C4.34111 14.625 1.375 11.6589 1.375 8Z" />
<path d="M8 3.875C8.34518 3.875 8.625 4.15482 8.625 4.5V7.375H11.5C11.8452 7.375 12.125 7.65482 12.125 8C12.125 8.34518 11.8452 8.625 11.5 8.625H8C7.65482 8.625 7.375 8.34518 7.375 8V4.5C7.375 4.15482 7.65482 3.875 8 3.875Z" />
</svg>
