<svg width="32" height="32" viewBox="0 0 32 32" xmlns="http://www.w3.org/2000/svg">
<path d="M15 12.75C15.4738 12.75 15.886 13.0136 16.098 13.4021C16.8203 12.9787 17.6484 12.75 18.5 12.75C19.7598 12.75 20.968 13.2504 21.8588 14.1412C22.7496 15.032 23.25 16.2402 23.25 17.5V22C23.25 22.6904 22.6904 23.25 22 23.25C21.3096 23.25 20.75 22.6904 20.75 22V17.5C20.75 16.9033 20.5129 16.331 20.091 15.909C19.669 15.4871 19.0967 15.25 18.5 15.25C17.9033 15.25 17.331 15.4871 16.909 15.909C16.4871 16.331 16.25 16.9033 16.25 17.5V22C16.25 22.6904 15.6904 23.25 15 23.25C14.3096 23.25 13.75 22.6904 13.75 22V14C13.75 13.3096 14.3096 12.75 15 12.75Z"/>
<path d="M12.25 14C12.25 13.3096 11.6904 12.75 11 12.75C10.3096 12.75 9.75 13.3096 9.75 14V22C9.75 22.6904 10.3096 23.25 11 23.25C11.6904 23.25 12.25 22.6904 12.25 22V14Z"/>
<path d="M12.5 10C12.5 10.8284 11.8284 11.5 11 11.5C10.1716 11.5 9.5 10.8284 9.5 10C9.5 9.17157 10.1716 8.5 11 8.5C11.8284 8.5 12.5 9.17157 12.5 10Z" />
<path d="M3.25 5.5C3.25 4.25736 4.25736 3.25 5.5 3.25H26.5C27.7426 3.25 28.75 4.25736 28.75 5.5V26.5C28.75 27.7426 27.7426 28.75 26.5 28.75H5.5C4.25736 28.75 3.25 27.7426 3.25 26.5V5.5ZM5.75 5.75V26.25H26.25V5.75H5.75Z"/>
</svg>
