<svg width="16" height="16" viewBox="-4 -4 24 24" xmlns="http://www.w3.org/2000/svg">
  <path
        d="M3.25 3.25v9.5h9.5v-9.5h-9.5ZM1.75 3c0-.69.56-1.25 1.25-1.25h10c.69 0 1.25.56 1.25 1.25v10c0 .69-.56 1.25-1.25 1.25H3c-.69 0-1.25-.56-1.25-1.25V3Z" />
  <path
        d="M11 .75a.75.75 0 0 1 .75.75v2a.75.75 0 0 1-1.5 0v-2A.75.75 0 0 1 11 .75ZM5 .75a.75.75 0 0 1 .75.75v2a.75.75 0 0 1-1.5 0v-2A.75.75 0 0 1 5 .75ZM1.75 5.5a.75.75 0 0 1 .75-.75h11a.75.75 0 0 1 0 1.5h-11a.75.75 0 0 1-.75-.75Z" />
</svg>
