<svg width="75" height="55" viewBox="0 0 75 55" xmlns="http://www.w3.org/2000/svg"><path d="M33.173 5.79v31.842a17.4 17.4 0 0 1-5.07 12.28A17.277 17.277 0 0 1 15.866 55a2.88 2.88 0 0 1-2.04-.848 2.9 2.9 0 0 1 0-4.094 2.88 2.88 0 0 1 2.04-.847 11.554 11.554 0 0 0 8.149-3.402 11.636 11.636 0 0 0 3.39-8.177v-2.895H5.769c-1.53 0-2.997-.61-4.08-1.696A5.8 5.8 0 0 1 0 28.947V5.79a5.8 5.8 0 0 1 1.69-4.093A5.759 5.759 0 0 1 5.77 0h21.634c1.53 0 2.997.61 4.08 1.696a5.8 5.8 0 0 1 1.69 4.093ZM69.231 0H47.596c-1.53 0-2.997.61-4.08 1.696a5.8 5.8 0 0 0-1.69 4.093v23.158a5.8 5.8 0 0 0 1.69 4.094 5.759 5.759 0 0 0 4.08 1.696h21.635v2.895a11.636 11.636 0 0 1-3.39 8.177 11.554 11.554 0 0 1-8.149 3.402 2.88 2.88 0 0 0-2.04.847 2.9 2.9 0 0 0 0 4.094 2.88 2.88 0 0 0 2.04.848c4.59 0 8.993-1.83 12.239-5.087A17.4 17.4 0 0 0 75 37.632V5.789a5.8 5.8 0 0 0-1.69-4.093A5.759 5.759 0 0 0 69.23 0Z" /></svg>
