<svg width="32" height="32" viewBox="0 0 32 32" xmlns="http://www.w3.org/2000/svg">
<path d="M16 28.25C16.6904 28.25 17.25 27.6904 17.25 27L17.25 5C17.25 4.30964 16.6904 3.75 16 3.75C15.3096 3.75 14.75 4.30964 14.75 5L14.75 27C14.75 27.6904 15.3096 28.25 16 28.25Z"/>
<path d="M25.8839 14.8839C26.372 14.3957 26.372 13.6043 25.8839 13.1161L16.8839 4.11611C16.3957 3.62796 15.6043 3.62796 15.1161 4.11611L6.11612 13.1161C5.62796 13.6043 5.62796 14.3957 6.11612 14.8839C6.60427 15.372 7.39573 15.372 7.88389 14.8839L16 6.76777L24.1161 14.8839C24.6043 15.372 25.3957 15.372 25.8839 14.8839Z"/>
</svg>
