<svg width="32" height="32" viewBox="0 0 32 32" xmlns="http://www.w3.org/2000/svg">
<path d="M16 2.75C23.3178 2.75 29.25 8.68223 29.25 16C29.25 23.3178 23.3178 29.25 16 29.25H16L15.6916 29.2465C8.5163 29.0826 2.75 23.2147 2.75 16C2.75 8.68222 8.68222 2.75 16 2.75ZM16 5.25C10.0629 5.25 5.25 10.0629 5.25 16C5.25 21.5141 9.40157 26.0585 14.7495 26.678L14.749 19.25H12C11.3096 19.25 10.75 18.6904 10.75 18C10.75 17.3528 11.2419 16.8205 11.8722 16.7565L12 16.75H14.749L14.7499 14.0053C14.7476 13.4458 14.8561 12.8913 15.0692 12.374C15.2822 11.8567 15.5956 11.3867 15.9911 10.9911C16.3867 10.5956 16.8567 10.2822 17.374 10.0692C17.8051 9.89163 18.262 9.78668 18.7231 9.758L19 9.74997H21C21.6904 9.74997 22.25 10.3096 22.25 11C22.25 11.6472 21.7581 12.1795 21.1278 12.2435L21 12.25L18.9947 12.25C18.7654 12.249 18.5381 12.2935 18.326 12.3808C18.1138 12.4682 17.9211 12.5967 17.7589 12.7589C17.5967 12.9211 17.4682 13.1138 17.3808 13.326C17.3153 13.4851 17.2739 13.6527 17.2577 13.8255L17.25 14L17.249 16.75H20C20.6904 16.75 21.25 17.3096 21.25 18C21.25 18.6472 20.7581 19.1795 20.1278 19.2435L20 19.25H17.249L17.2495 26.6782C22.505 26.0698 26.6054 21.6711 26.7463 16.2864L26.75 16C26.75 10.0629 21.9371 5.25 16 5.25Z" />
</svg>
