<svg width="32" height="32" viewBox="0 0 32 32" xmlns="http://www.w3.org/2000/svg">
<path d="M16.6651 5.19653C14.0303 5.0314 11.4258 5.83368 9.34065 7.45274C7.25547 9.0718 5.83296 11.3963 5.34018 13.9898C4.8474 16.5834 5.31824 19.2676 6.66429 21.5386C6.82501 21.8098 6.86738 22.135 6.78152 22.4383L5.68345 26.3166L9.56172 25.2185C9.865 25.1326 10.1902 25.175 10.4614 25.3357C12.7324 26.6818 15.4166 27.1526 18.0102 26.6598C20.6037 26.167 22.9282 24.7445 24.5473 22.6594C26.1663 20.5742 26.9686 17.9697 26.8035 15.3349C26.6384 12.7002 25.5172 10.2163 23.6505 8.34954C21.7837 6.48281 19.2998 5.36165 16.6651 5.19653ZM7.93008 5.63607C10.4578 3.6734 13.615 2.70086 16.8089 2.90103C20.0029 3.10119 23.0139 4.4603 25.2768 6.72319C27.5397 8.98608 28.8988 11.9971 29.099 15.1911C29.2991 18.385 28.3266 21.5422 26.3639 24.0699C24.4013 26.5976 21.5835 28.322 18.4395 28.9194C15.4605 29.4854 12.3828 29.0027 9.72608 27.5624L6.04211 28.6054C5.67575 28.7115 5.28765 28.7176 4.91809 28.623C4.5466 28.528 4.20751 28.3348 3.93636 28.0636C3.66522 27.7925 3.47201 27.4534 3.37698 27.0819C3.28244 26.7123 3.28854 26.3242 3.3946 25.9579L4.43764 22.2739C2.99732 19.6172 2.51459 16.5395 3.08061 13.5605C3.67797 10.4166 5.40237 7.59874 7.93008 5.63607Z" />
<path d="M12.3362 10.6557C11.7742 10.6949 11.2429 10.9351 10.8413 11.3353C10.4009 11.7741 10.1524 12.3694 10.15 12.9911C10.1472 14.1551 10.3743 15.3083 10.8185 16.3843C11.2627 17.4605 11.9151 18.4383 12.7384 19.2616C13.5617 20.0849 14.5395 20.7373 15.6157 21.1815C16.6911 21.6254 17.8435 21.8526 19.0068 21.85C19.6281 21.8449 20.2225 21.5953 20.6611 21.1551C21.0607 20.7541 21.3017 20.2243 21.3435 19.6633L19.0185 18.3299L17.1283 19.4617C16.8056 19.6548 16.409 19.6781 16.066 19.5239C14.4705 18.8067 13.1933 17.5295 12.4761 15.934C12.3219 15.591 12.3452 15.1944 12.5383 14.8718L13.6701 12.9815L12.3362 10.6557ZM12.496 8.35C12.8537 8.34807 13.2055 8.44212 13.5145 8.62241C13.8223 8.80192 14.0764 9.06035 14.2508 9.3709L15.7155 11.9248C15.9012 12.2558 15.9965 12.63 15.9918 13.0096C15.9871 13.3892 15.8826 13.7609 15.6887 14.0873L15.6867 14.0907L14.8415 15.5024C15.2499 16.1814 15.8186 16.7502 16.4976 17.1585L17.9093 16.3133L17.9127 16.3113C18.2391 16.1174 18.6108 16.0129 18.9904 16.0082C19.37 16.0035 19.7441 16.0988 20.0752 16.2846L20.0847 16.2899L22.6292 17.7493C22.9397 17.9236 23.1981 18.1777 23.3776 18.4855C23.5583 18.7952 23.6523 19.1477 23.65 19.5062C23.6451 20.7334 23.1566 21.9092 22.2903 22.7786C21.4236 23.6484 20.2486 24.1412 19.0207 24.15L19.0154 24.15C17.5481 24.1537 16.0945 23.8674 14.7382 23.3076C13.3819 22.7478 12.1496 21.9255 11.1121 20.8879C10.0745 19.8504 9.25225 18.6181 8.69244 17.2618C8.13263 15.9055 7.84634 14.4519 7.85001 12.9846C7.85441 11.7542 8.34626 10.5745 9.21783 9.70607C10.0884 8.83856 11.2671 8.35105 12.496 8.35Z" />
</svg>
