<svg width="32" height="32" viewBox="0 0 32 32" xmlns="http://www.w3.org/2000/svg">
<path  d="M28.25 16C28.25 15.3096 27.6904 14.75 27 14.75H5C4.30964 14.75 3.75 15.3096 3.75 16C3.75 16.6904 4.30964 17.25 5 17.25H27C27.6904 17.25 28.25 16.6904 28.25 16Z" />
<path d="M14.8839 6.11612C14.3957 5.62796 13.6043 5.62796 13.1161 6.11612L4.11612 15.1161C3.62796 15.6043 3.62796 16.3957 4.11612 16.8839L13.1161 25.8839C13.6043 26.372 14.3957 26.372 14.8839 25.8839C15.372 25.3957 15.372 24.6043 14.8839 24.1161L6.76777 16L14.8839 7.88388C15.372 7.39573 15.372 6.60427 14.8839 6.11612Z" />
</svg>
