<svg width="32" height="32" viewBox="0 0 32 32" xmlns="http://www.w3.org/2000/svg">
<path d="M19.2267 3.14889C22.0899 3.86779 24.6311 5.52228 26.447 7.84989C28.2628 10.1775 29.2494 13.0448 29.25 15.9972C29.25 19.6769 27.6519 22.2472 24.5 22.2472C22.7501 22.2472 21.4792 21.4549 20.6947 20.1204C19.5516 21.4242 17.8719 22.2472 16 22.2472C12.5483 22.2472 9.75002 19.4489 9.75002 15.9972C9.75002 12.5454 12.5483 9.74718 16 9.74718C17.4073 9.74718 18.706 10.2123 19.7507 10.9973L19.75 10.9972C19.75 10.3068 20.3097 9.74719 21 9.74719C21.6472 9.74719 22.1796 10.2391 22.2436 10.8694L22.25 10.9972V15.9972C22.25 18.4716 23.0431 19.7472 24.5 19.7472C25.9569 19.7472 26.75 18.4716 26.75 15.9975C26.7495 13.6024 25.9491 11.2761 24.4759 9.38765C23.0026 7.49921 20.9409 6.15689 18.6179 5.57363C16.2948 4.99037 13.8437 5.19959 11.6531 6.1681C9.46251 7.1366 7.65813 8.80891 6.52623 10.9197C5.39432 13.0305 4.99974 15.4587 5.40509 17.8193C5.81044 20.1799 6.99251 22.3375 8.76371 23.9497C10.5349 25.562 12.7938 26.5366 15.182 26.7188C17.5701 26.9011 19.9507 26.2806 21.9461 24.9558C22.5213 24.574 23.2971 24.7307 23.6789 25.3058C24.0607 25.8809 23.904 26.6567 23.3289 27.0386C20.8694 28.6715 17.9352 29.4363 14.9917 29.2116C12.0482 28.987 9.26391 27.7857 7.08083 25.7985C4.89774 23.8113 3.44077 21.1519 2.94115 18.2424C2.44154 15.3329 2.92788 12.3399 4.32301 9.73821C5.71815 7.13656 7.94215 5.07534 10.6421 3.8816C13.3422 2.68786 16.3634 2.42999 19.2267 3.14889ZM16 12.2472C13.929 12.2472 12.25 13.9261 12.25 15.9972C12.25 18.0682 13.929 19.7472 16 19.7472C18.0711 19.7472 19.75 18.0682 19.75 15.9972C19.75 13.9261 18.0711 12.2472 16 12.2472Z"/>
</svg>
