<svg width="32" height="32" viewBox="0 0 32 32" xmlns="http://www.w3.org/2000/svg">
<path d="M16 12.25C13.9289 12.25 12.25 13.9289 12.25 16C12.25 18.0711 13.9289 19.75 16 19.75C18.0711 19.75 19.75 18.0711 19.75 16C19.75 13.9289 18.0711 12.25 16 12.25ZM9.75 16C9.75 12.5482 12.5482 9.75 16 9.75C19.4518 9.75 22.25 12.5482 22.25 16C22.25 19.4518 19.4518 22.25 16 22.25C12.5482 22.25 9.75 19.4518 9.75 16Z"/>
<path d="M10.5 5.75C7.87665 5.75 5.75 7.87665 5.75 10.5V21.5C5.75 24.1234 7.87665 26.25 10.5 26.25H21.5C24.1234 26.25 26.25 24.1234 26.25 21.5V10.5C26.25 7.87665 24.1234 5.75 21.5 5.75H10.5ZM3.25 10.5C3.25 6.49594 6.49594 3.25 10.5 3.25H21.5C25.5041 3.25 28.75 6.49594 28.75 10.5V21.5C28.75 25.5041 25.5041 28.75 21.5 28.75H10.5C6.49594 28.75 3.25 25.5041 3.25 21.5V10.5Z"/>
<path d="M22.5 11C23.3284 11 24 10.3284 24 9.5C24 8.67157 23.3284 8 22.5 8C21.6716 8 21 8.67157 21 9.5C21 10.3284 21.6716 11 22.5 11Z"/>
</svg>
