<svg width="32" height="32" viewBox="0 0 32 32" xmlns="http://www.w3.org/2000/svg">
<path fill-rule="evenodd" d="M10.8112 19.6587C8.36028 17.995 6.75 15.1855 6.75 12C6.75 6.89137 10.8914 2.75 16 2.75C21.1086 2.75 25.25 6.89137 25.25 12C25.25 15.1855 23.6397 17.995 21.1888 19.6587C22.0296 19.963 22.8453 20.3418 23.6256 20.7923C25.944 22.131 27.8692 24.0565 29.2076 26.3751C29.5527 26.973 29.3478 27.7375 28.7499 28.0826C28.152 28.4277 27.3875 28.2228 27.0424 27.6249C25.9234 25.6864 24.3139 24.0766 22.3755 22.9573C20.4691 21.8566 18.3107 21.2684 16.1107 21.2494C16.0738 21.2498 16.0369 21.25 16 21.25C15.963 21.25 15.9262 21.2498 15.8893 21.2494C13.6893 21.2684 11.5309 21.8566 9.62449 22.9573C7.68612 24.0766 6.07655 25.6864 4.95758 27.6249C4.61246 28.2228 3.84799 28.4277 3.25009 28.0826C2.6522 27.7375 2.44728 26.973 2.79241 26.3751C4.13078 24.0565 6.05595 22.131 8.37439 20.7923C9.15474 20.3418 9.97038 19.963 10.8112 19.6587ZM9.25 12C9.25 8.27208 12.2721 5.25 16 5.25C19.7279 5.25 22.75 8.27208 22.75 12C22.75 15.6934 19.7837 18.6939 16.1035 18.7492C16.069 18.749 16.0345 18.7489 16 18.7489C15.9655 18.7489 15.931 18.749 15.8965 18.7492C12.2163 18.6939 9.25 15.6934 9.25 12Z" />
</svg>
