<svg width="32" height="32" viewBox="0 0 32 32" xmlns="http://www.w3.org/2000/svg">
<path d="M3.75 8C3.75 7.30964 4.30964 6.75 5 6.75H27C27.6904 6.75 28.25 7.30964 28.25 8C28.25 8.69036 27.6904 9.25 27 9.25H5C4.30964 9.25 3.75 8.69036 3.75 8Z"/>
<path d="M3.75 16C3.75 15.3096 4.30964 14.75 5 14.75H27C27.6904 14.75 28.25 15.3096 28.25 16C28.25 16.6904 27.6904 17.25 27 17.25H5C4.30964 17.25 3.75 16.6904 3.75 16Z"/>
<path d="M5 22.75C4.30964 22.75 3.75 23.3096 3.75 24C3.75 24.6904 4.30964 25.25 5 25.25H27C27.6904 25.25 28.25 24.6904 28.25 24C28.25 23.3096 27.6904 22.75 27 22.75H5Z"/>
</svg>
