<svg width="16" height="16" viewBox="0 0 16 16" xmlns="http://www.w3.org/2000/svg">
<path d="M4.84467 6.34467C5.13756 6.05178 5.61244 6.05178 5.90533 6.34467L8 8.43934L10.0947 6.34467C10.3876 6.05178 10.8624 6.05178 11.1553 6.34467C11.4482 6.63756 11.4482 7.11244 11.1553 7.40533L8.53033 10.0303C8.23744 10.3232 7.76256 10.3232 7.46967 10.0303L4.84467 7.40533C4.55178 7.11244 4.55178 6.63756 4.84467 6.34467Z"/>
<path d="M8 1.75C8.41421 1.75 8.75 2.08579 8.75 2.5V9.5C8.75 9.91421 8.41421 10.25 8 10.25C7.58579 10.25 7.25 9.91421 7.25 9.5V2.5C7.25 2.08579 7.58579 1.75 8 1.75Z"/>
<path d="M2.5 8.75C2.91421 8.75 3.25 9.08579 3.25 9.5V12.75H12.75V9.5C12.75 9.08579 13.0858 8.75 13.5 8.75C13.9142 8.75 14.25 9.08579 14.25 9.5V13C14.25 13.3315 14.1183 13.6495 13.8839 13.8839C13.6495 14.1183 13.3315 14.25 13 14.25H3C2.66848 14.25 2.35054 14.1183 2.11612 13.8839C1.8817 13.6495 1.75 13.3315 1.75 13V9.5C1.75 9.08579 2.08579 8.75 2.5 8.75Z"/>
</svg>
