<svg width="32" height="32" viewBox="0 0 32 32" xmlns="http://www.w3.org/2000/svg">
<path d="M19.6523 4L19.4319 4.00159C16.0856 4.07773 13.3263 6.87765 13.3263 10.2505L13.3254 10.686L13.0171 10.5973C11.2475 10.0535 9.46988 9.15019 7.74168 7.98639C6.90661 7.42403 6.13666 6.83591 5.44713 6.25369L5.0977 5.95325L4.8037 5.69061L4.56712 5.47021L4.45488 5.36124C3.74003 4.65498 2.52624 5.03818 2.34648 6.02686C1.32042 11.6702 2.63563 16.1272 5.46678 19.4302L5.71159 19.7091C6.36431 20.4351 7.01358 21.0194 7.60942 21.4726L7.72838 21.561L7.71617 21.5751C7.32634 21.9854 6.87866 22.3779 6.38188 22.7505C5.66906 23.2851 4.89881 23.7472 4.12846 24.1324L3.80602 24.2894L3.52989 24.4164L3.30522 24.5133L3.13744 24.58C2.38359 24.8627 2.08971 25.7739 2.5363 26.4438C2.77976 26.809 3.25642 27.2381 4.01732 27.6185C5.13697 28.1783 6.6403 28.5005 8.57634 28.5005C12.9576 28.5026 17.1758 26.8359 20.3727 23.8392L20.6781 23.5458C23.4918 20.7757 25.2662 17.1258 25.7114 13.2108L25.7474 12.846L29.4603 9.13434L29.5422 9.04465C30.2056 8.249 29.6487 7.00046 28.5763 7.00046L24.9184 7L24.8921 6.9552C24.4198 6.19389 23.7873 5.53992 23.0348 5.04099C22.1149 4.43115 21.0516 4.07677 19.9535 4.01123L19.6523 4ZM19.6244 6.50037C20.3468 6.50871 21.0512 6.72548 21.6534 7.12466C22.2553 7.52377 22.7293 8.0883 23.0182 8.7504L23.0785 8.87054C23.2992 9.25707 23.712 9.50046 24.1639 9.50046L25.5583 9.5L23.655 11.4041C23.4401 11.6189 23.3109 11.9046 23.2914 12.2078C23.0512 15.9465 21.3962 19.4533 18.663 22.0153C15.9297 24.5773 12.3233 26.0023 8.57695 26.0005L8.24846 25.9968C7.60488 25.9823 7.04164 25.925 6.55272 25.8331L6.31835 25.785L6.58428 25.6284C7.02575 25.3589 7.46052 25.0665 7.88188 24.7505C8.98768 23.9211 9.91925 22.9895 10.6164 21.9438C11.0334 21.3182 10.8079 20.4687 10.1354 20.1324L10.0761 20.1014L9.91814 20.0106L9.71153 19.8808C9.59684 19.806 9.46564 19.7164 9.32054 19.6116C8.65648 19.132 7.98876 18.531 7.36491 17.8032L7.16051 17.5584C5.35057 15.3327 4.34965 12.5005 4.51732 8.94931L4.52934 8.73001L4.7813 8.92963C5.27455 9.31159 5.79677 9.69066 6.34526 10.06C8.92178 11.7951 11.6263 13.026 14.3708 13.4835C15.1328 13.6104 15.8263 13.0229 15.8263 12.2505V10.2505C15.8263 8.19578 17.5705 6.47236 19.6244 6.50037Z"/>
</svg>
