<svg width="24" height="24" viewBox="0 0 24 24" xmlns="http://www.w3.org/2000/svg">
<path d="M2.06251 5.25001C2.06251 4.73224 2.48224 4.31251 3.00001 4.31251H21C21.5178 4.31251 21.9375 4.73224 21.9375 5.25001V18C21.9375 18.4476 21.7597 18.8768 21.4432 19.1932C21.1268 19.5097 20.6976 19.6875 20.25 19.6875H3.75001C3.30245 19.6875 2.87323 19.5097 2.55676 19.1932C2.2403 18.8768 2.06251 18.4476 2.06251 18V5.25001ZM3.93751 6.18751V17.8125H20.0625V6.18751H3.93751Z"/>
<path d="M2.30892 4.61651C2.65879 4.23484 3.25182 4.20906 3.6335 4.55892L12 12.2282L20.3665 4.55892C20.7482 4.20906 21.3412 4.23484 21.6911 4.61651C22.041 4.99819 22.0152 5.59122 21.6335 5.94109L12.6335 14.1911C12.2751 14.5196 11.7249 14.5196 11.3665 14.1911L2.36651 5.94109C1.98484 5.59122 1.95906 4.99819 2.30892 4.61651Z"/>
</svg>
