<svg width="24" height="24" viewBox="0 0 24 24" xmlns="http://www.w3.org/2000/svg">
<path d="M2.8125 16.125C2.8125 15.6072 3.23223 15.1875 3.75 15.1875H13.875C14.3928 15.1875 14.8125 15.6072 14.8125 16.125C14.8125 16.6428 14.3928 17.0625 13.875 17.0625H3.75C3.23223 17.0625 2.8125 16.6428 2.8125 16.125Z"/>
<path d="M16.6875 16.125C16.6875 15.6072 17.1072 15.1875 17.625 15.1875H20.25C20.7678 15.1875 21.1875 15.6072 21.1875 16.125C21.1875 16.6428 20.7678 17.0625 20.25 17.0625H17.625C17.1072 17.0625 16.6875 16.6428 16.6875 16.125Z"/>
<path d="M15.75 15.1875C15.2322 15.1875 14.8125 15.6072 14.8125 16.125C14.8125 16.6428 15.2322 17.0625 15.75 17.0625C16.2678 17.0625 16.6875 16.6428 16.6875 16.125C16.6875 15.6072 16.2678 15.1875 15.75 15.1875ZM12.9375 16.125C12.9375 14.5717 14.1967 13.3125 15.75 13.3125C17.3033 13.3125 18.5625 14.5717 18.5625 16.125C18.5625 17.6783 17.3033 18.9375 15.75 18.9375C14.1967 18.9375 12.9375 17.6783 12.9375 16.125Z" />
<path d="M2.8125 7.875C2.8125 7.35723 3.23223 6.9375 3.75 6.9375H7.875C8.39277 6.9375 8.8125 7.35723 8.8125 7.875C8.8125 8.39277 8.39277 8.8125 7.875 8.8125H3.75C3.23223 8.8125 2.8125 8.39277 2.8125 7.875Z" />
<path d="M10.6875 7.875C10.6875 7.35723 11.1072 6.9375 11.625 6.9375H20.25C20.7678 6.9375 21.1875 7.35723 21.1875 7.875C21.1875 8.39277 20.7678 8.8125 20.25 8.8125H11.625C11.1072 8.8125 10.6875 8.39277 10.6875 7.875Z" />
<path d="M9.75 6.9375C9.23223 6.9375 8.8125 7.35723 8.8125 7.875C8.8125 8.39277 9.23223 8.8125 9.75 8.8125C10.2678 8.8125 10.6875 8.39277 10.6875 7.875C10.6875 7.35723 10.2678 6.9375 9.75 6.9375ZM6.9375 7.875C6.9375 6.3217 8.1967 5.0625 9.75 5.0625C11.3033 5.0625 12.5625 6.3217 12.5625 7.875C12.5625 9.4283 11.3033 10.6875 9.75 10.6875C8.1967 10.6875 6.9375 9.4283 6.9375 7.875Z"/>
</svg>
